<svg width="32" height="32" viewBox="0 0 32 32" fill="none" xmlns="http://www.w3.org/2000/svg">
  <defs>
    <linearGradient id="grad1" x1="0%" y1="0%" x2="100%" y2="100%">
      <stop offset="0%" style="stop-color: hsl(198, 93%, 60%)" />
      <stop offset="100%" style="stop-color: hsl(217, 91%, 60%)" />
    </linearGradient>
    <linearGradient id="grad2" x1="0%" y1="0%" x2="100%" y2="100%">
      <stop offset="0%" style="stop-color: hsl(217, 91%, 60%)" />
      <stop offset="100%" style="stop-color: hsl(258, 90%, 66%)" />
    </linearGradient>
  </defs>
  <rect x="3" y="5" width="26" height="24" rx="5" fill="url(#grad1)" />
  <path d="M9 3C9 2.44772 9.44772 2 10 2H12C12.5523 2 13 2.44772 13 3V7C13 7.55228 12.5523 8 12 8H10C9.44772 8 9 7.55228 9 7V3Z" fill="url(#grad1)"/>
  <path d="M19 3C19 2.44772 19.4477 2 20 2H22C22.5523 2 23 2.44772 23 3V7C23 7.55228 22.5523 8 22 8H20C19.4477 8 19 7.55228 19 7V3Z" fill="url(#grad1)"/>
  <circle cx="16" cy="14" r="3" fill="url(#grad2)"/>
  <circle cx="9" cy="17" r="2.5" fill="url(#grad2)"/>
  <circle cx="23" cy="17" r="2.5" fill="url(#grad2)"/>
  <path d="M8 24C8 21.7909 9.79086 20 12 20H20C22.2091 20 24 21.7909 24 24V25H8V24Z" fill="url(#grad2)"/>
  <path d="M11 26C11 24.3431 12.3431 23 14 23H18C19.6569 23 21 24.3431 21 26V27H11V26Z" fill="url(#grad2)"/>
</svg>
